<mxfile host="app.diagrams.net" modified="2023-03-04T20:20:37.302Z" agent="5.0 (X11)" etag="dmmHtlItcZ0sCDpbUd9E" version="21.0.2" type="github">
  <diagram name="Page-1" id="58cdce13-f638-feb5-8d6f-7d28b1aa9fa0">
    <mxGraphModel dx="1434" dy="703" grid="1" gridSize="10" guides="1" tooltips="1" connect="1" arrows="1" fold="1" page="1" pageScale="1" pageWidth="1100" pageHeight="850" background="none" math="0" shadow="0">
      <root>
        <mxCell id="0" />
        <mxCell id="1" parent="0" />
        <mxCell id="CW89IUnAFHwVdPf6LcuZ-48" value="" style="rounded=1;whiteSpace=wrap;html=1;" vertex="1" parent="1">
          <mxGeometry x="660" width="570" height="750" as="geometry" />
        </mxCell>
        <mxCell id="CW89IUnAFHwVdPf6LcuZ-46" value="" style="rounded=1;whiteSpace=wrap;html=1;" vertex="1" parent="1">
          <mxGeometry x="20" y="10" width="560" height="750" as="geometry" />
        </mxCell>
        <mxCell id="CW89IUnAFHwVdPf6LcuZ-20" style="edgeStyle=orthogonalEdgeStyle;rounded=0;orthogonalLoop=1;jettySize=auto;html=1;entryX=0;entryY=0.75;entryDx=0;entryDy=0;" edge="1" parent="1" source="382b91b5511bd0f7-5" target="382b91b5511bd0f7-10">
          <mxGeometry relative="1" as="geometry" />
        </mxCell>
        <mxCell id="382b91b5511bd0f7-5" value="&lt;div&gt;создание&lt;br&gt;&lt;/div&gt;&lt;div&gt;vrf DMVPN&lt;/div&gt;" style="rounded=1;whiteSpace=wrap;html=1;arcSize=24;shadow=0;comic=0;labelBackgroundColor=none;fontFamily=Verdana;fontSize=12;align=center;" parent="1" vertex="1">
          <mxGeometry x="30" y="270" width="120" height="60" as="geometry" />
        </mxCell>
        <mxCell id="CW89IUnAFHwVdPf6LcuZ-19" style="edgeStyle=orthogonalEdgeStyle;rounded=0;orthogonalLoop=1;jettySize=auto;html=1;entryX=1;entryY=0.25;entryDx=0;entryDy=0;" edge="1" parent="1" source="382b91b5511bd0f7-6" target="382b91b5511bd0f7-10">
          <mxGeometry relative="1" as="geometry">
            <Array as="points">
              <mxPoint x="260" y="425" />
            </Array>
          </mxGeometry>
        </mxCell>
        <mxCell id="382b91b5511bd0f7-6" value="Параметры безопасности" style="rounded=1;whiteSpace=wrap;html=1;arcSize=24;shadow=0;comic=0;labelBackgroundColor=none;fontFamily=Verdana;fontSize=12;align=center;" parent="1" vertex="1">
          <mxGeometry x="190" y="270" width="120" height="60" as="geometry" />
        </mxCell>
        <mxCell id="382b91b5511bd0f7-9" value="настройка центра сертификации " style="rounded=1;whiteSpace=wrap;html=1;arcSize=24;shadow=0;comic=0;labelBackgroundColor=none;fontFamily=Verdana;fontSize=12;align=center;" parent="1" vertex="1">
          <mxGeometry x="430" y="110" width="120" height="60" as="geometry" />
        </mxCell>
        <mxCell id="CW89IUnAFHwVdPf6LcuZ-29" style="edgeStyle=orthogonalEdgeStyle;rounded=0;orthogonalLoop=1;jettySize=auto;html=1;" edge="1" parent="1" source="382b91b5511bd0f7-10" target="CW89IUnAFHwVdPf6LcuZ-26">
          <mxGeometry relative="1" as="geometry" />
        </mxCell>
        <mxCell id="382b91b5511bd0f7-10" value="Туннельный интерфейс виртуальной частной сети Tunnel100" style="rounded=1;whiteSpace=wrap;html=1;arcSize=24;shadow=0;comic=0;labelBackgroundColor=none;fontFamily=Verdana;fontSize=12;align=center;" parent="1" vertex="1">
          <mxGeometry x="120" y="410" width="120" height="80" as="geometry" />
        </mxCell>
        <mxCell id="CW89IUnAFHwVdPf6LcuZ-18" style="rounded=0;orthogonalLoop=1;jettySize=auto;html=1;" edge="1" parent="1" source="CW89IUnAFHwVdPf6LcuZ-1" target="382b91b5511bd0f7-10">
          <mxGeometry relative="1" as="geometry" />
        </mxCell>
        <mxCell id="CW89IUnAFHwVdPf6LcuZ-1" value="&lt;div&gt;Виртуальный интерфейс Loopback0&lt;/div&gt;&lt;div&gt;46.175.130.1 &lt;br&gt;&lt;/div&gt;" style="rounded=1;whiteSpace=wrap;html=1;arcSize=24;shadow=0;comic=0;labelBackgroundColor=none;fontFamily=Verdana;fontSize=12;align=center;" vertex="1" parent="1">
          <mxGeometry x="120" y="150" width="120" height="60" as="geometry" />
        </mxCell>
        <mxCell id="CW89IUnAFHwVdPf6LcuZ-3" value="установка сертификата безопасности" style="rounded=1;whiteSpace=wrap;html=1;arcSize=24;shadow=0;comic=0;labelBackgroundColor=none;fontFamily=Verdana;fontSize=12;align=center;" vertex="1" parent="1">
          <mxGeometry x="430" y="30" width="120" height="60" as="geometry" />
        </mxCell>
        <mxCell id="CW89IUnAFHwVdPf6LcuZ-4" value="&lt;div&gt;выбор алгоритмов&lt;/div&gt;&lt;div&gt;шифрования&lt;br&gt;&lt;/div&gt;" style="rounded=1;whiteSpace=wrap;html=1;arcSize=24;shadow=0;comic=0;labelBackgroundColor=none;fontFamily=Verdana;fontSize=12;align=center;" vertex="1" parent="1">
          <mxGeometry x="430" y="190" width="120" height="60" as="geometry" />
        </mxCell>
        <mxCell id="CW89IUnAFHwVdPf6LcuZ-10" value="" style="endArrow=classic;html=1;rounded=0;exitX=0;exitY=0.5;exitDx=0;exitDy=0;edgeStyle=orthogonalEdgeStyle;entryX=0.5;entryY=0;entryDx=0;entryDy=0;" edge="1" parent="1" source="382b91b5511bd0f7-9" target="382b91b5511bd0f7-6">
          <mxGeometry width="50" height="50" relative="1" as="geometry">
            <mxPoint x="440" y="230" as="sourcePoint" />
            <mxPoint x="250" y="260" as="targetPoint" />
            <Array as="points">
              <mxPoint x="340" y="140" />
              <mxPoint x="340" y="270" />
            </Array>
          </mxGeometry>
        </mxCell>
        <mxCell id="CW89IUnAFHwVdPf6LcuZ-11" value="" style="endArrow=classic;html=1;rounded=0;exitX=0;exitY=0.5;exitDx=0;exitDy=0;edgeStyle=orthogonalEdgeStyle;entryX=0.683;entryY=0.033;entryDx=0;entryDy=0;entryPerimeter=0;" edge="1" parent="1" source="CW89IUnAFHwVdPf6LcuZ-3" target="382b91b5511bd0f7-6">
          <mxGeometry width="50" height="50" relative="1" as="geometry">
            <mxPoint x="440" y="150" as="sourcePoint" />
            <mxPoint x="260" y="280" as="targetPoint" />
            <Array as="points">
              <mxPoint x="360" y="60" />
              <mxPoint x="360" y="272" />
            </Array>
          </mxGeometry>
        </mxCell>
        <mxCell id="CW89IUnAFHwVdPf6LcuZ-12" value="" style="endArrow=classic;html=1;rounded=0;exitX=0;exitY=0.5;exitDx=0;exitDy=0;edgeStyle=orthogonalEdgeStyle;" edge="1" parent="1" source="CW89IUnAFHwVdPf6LcuZ-4" target="382b91b5511bd0f7-6">
          <mxGeometry width="50" height="50" relative="1" as="geometry">
            <mxPoint x="520" y="340" as="sourcePoint" />
            <mxPoint x="570" y="290" as="targetPoint" />
          </mxGeometry>
        </mxCell>
        <mxCell id="CW89IUnAFHwVdPf6LcuZ-31" style="rounded=0;orthogonalLoop=1;jettySize=auto;html=1;" edge="1" parent="1" source="CW89IUnAFHwVdPf6LcuZ-23" target="CW89IUnAFHwVdPf6LcuZ-21">
          <mxGeometry relative="1" as="geometry" />
        </mxCell>
        <mxCell id="CW89IUnAFHwVdPf6LcuZ-23" value="Междоменный протокол граничного шлюза - BGP" style="rounded=1;whiteSpace=wrap;html=1;arcSize=24;shadow=0;comic=0;labelBackgroundColor=none;fontFamily=Verdana;fontSize=12;align=center;" vertex="1" parent="1">
          <mxGeometry x="110" y="640" width="140" height="80" as="geometry" />
        </mxCell>
        <mxCell id="CW89IUnAFHwVdPf6LcuZ-28" style="rounded=0;orthogonalLoop=1;jettySize=auto;html=1;exitX=0;exitY=0.5;exitDx=0;exitDy=0;" edge="1" parent="1" source="CW89IUnAFHwVdPf6LcuZ-25" target="382b91b5511bd0f7-10">
          <mxGeometry relative="1" as="geometry" />
        </mxCell>
        <mxCell id="CW89IUnAFHwVdPf6LcuZ-25" value="Внутридоменный протокол граничного шлюза - BGP" style="rounded=1;whiteSpace=wrap;html=1;arcSize=24;shadow=0;comic=0;labelBackgroundColor=none;fontFamily=Verdana;fontSize=12;align=center;" vertex="1" parent="1">
          <mxGeometry x="310" y="410" width="140" height="80" as="geometry" />
        </mxCell>
        <mxCell id="CW89IUnAFHwVdPf6LcuZ-30" style="edgeStyle=orthogonalEdgeStyle;rounded=0;orthogonalLoop=1;jettySize=auto;html=1;" edge="1" parent="1" source="CW89IUnAFHwVdPf6LcuZ-26" target="CW89IUnAFHwVdPf6LcuZ-23">
          <mxGeometry relative="1" as="geometry" />
        </mxCell>
        <mxCell id="CW89IUnAFHwVdPf6LcuZ-26" value="Сетевой интерфейс для доступа в Интернет" style="rounded=1;whiteSpace=wrap;html=1;arcSize=24;shadow=0;comic=0;labelBackgroundColor=none;fontFamily=Verdana;fontSize=12;align=center;" vertex="1" parent="1">
          <mxGeometry x="120" y="530" width="120" height="60" as="geometry" />
        </mxCell>
        <mxCell id="CW89IUnAFHwVdPf6LcuZ-52" style="edgeStyle=orthogonalEdgeStyle;rounded=0;orthogonalLoop=1;jettySize=auto;html=1;" edge="1" parent="1" source="CW89IUnAFHwVdPf6LcuZ-32" target="CW89IUnAFHwVdPf6LcuZ-50">
          <mxGeometry relative="1" as="geometry" />
        </mxCell>
        <mxCell id="CW89IUnAFHwVdPf6LcuZ-32" value="настройка центра сертификации " style="rounded=1;whiteSpace=wrap;html=1;arcSize=24;shadow=0;comic=0;labelBackgroundColor=none;fontFamily=Verdana;fontSize=12;align=center;" vertex="1" parent="1">
          <mxGeometry x="690" y="110" width="120" height="60" as="geometry" />
        </mxCell>
        <mxCell id="CW89IUnAFHwVdPf6LcuZ-51" style="edgeStyle=orthogonalEdgeStyle;rounded=0;orthogonalLoop=1;jettySize=auto;html=1;" edge="1" parent="1" source="CW89IUnAFHwVdPf6LcuZ-33" target="CW89IUnAFHwVdPf6LcuZ-50">
          <mxGeometry relative="1" as="geometry" />
        </mxCell>
        <mxCell id="CW89IUnAFHwVdPf6LcuZ-33" value="установка сертификата безопасности" style="rounded=1;whiteSpace=wrap;html=1;arcSize=24;shadow=0;comic=0;labelBackgroundColor=none;fontFamily=Verdana;fontSize=12;align=center;" vertex="1" parent="1">
          <mxGeometry x="690" y="30" width="120" height="60" as="geometry" />
        </mxCell>
        <mxCell id="CW89IUnAFHwVdPf6LcuZ-53" style="edgeStyle=orthogonalEdgeStyle;rounded=0;orthogonalLoop=1;jettySize=auto;html=1;entryX=1;entryY=0.5;entryDx=0;entryDy=0;" edge="1" parent="1" source="CW89IUnAFHwVdPf6LcuZ-34" target="CW89IUnAFHwVdPf6LcuZ-50">
          <mxGeometry relative="1" as="geometry" />
        </mxCell>
        <mxCell id="CW89IUnAFHwVdPf6LcuZ-34" value="&lt;div&gt;выбор алгоритмов&lt;/div&gt;&lt;div&gt;шифрования&lt;br&gt;&lt;/div&gt;" style="rounded=1;whiteSpace=wrap;html=1;arcSize=24;shadow=0;comic=0;labelBackgroundColor=none;fontFamily=Verdana;fontSize=12;align=center;" vertex="1" parent="1">
          <mxGeometry x="690" y="190" width="120" height="60" as="geometry" />
        </mxCell>
        <mxCell id="CW89IUnAFHwVdPf6LcuZ-43" style="edgeStyle=orthogonalEdgeStyle;rounded=0;orthogonalLoop=1;jettySize=auto;html=1;exitX=0.5;exitY=1;exitDx=0;exitDy=0;" edge="1" parent="1" source="CW89IUnAFHwVdPf6LcuZ-38" target="CW89IUnAFHwVdPf6LcuZ-42">
          <mxGeometry relative="1" as="geometry" />
        </mxCell>
        <mxCell id="CW89IUnAFHwVdPf6LcuZ-38" value="&lt;div&gt;Туннельный интерфейс виртуальной частной сети Tunnel0&lt;/div&gt;&lt;div&gt;10.10.128.200 &lt;br&gt;&lt;/div&gt;" style="rounded=1;whiteSpace=wrap;html=1;arcSize=24;shadow=0;comic=0;labelBackgroundColor=none;fontFamily=Verdana;fontSize=12;align=center;" vertex="1" parent="1">
          <mxGeometry x="990" y="410" width="120" height="100" as="geometry" />
        </mxCell>
        <mxCell id="CW89IUnAFHwVdPf6LcuZ-55" style="edgeStyle=orthogonalEdgeStyle;rounded=0;orthogonalLoop=1;jettySize=auto;html=1;entryX=0.083;entryY=0.4;entryDx=0;entryDy=0;entryPerimeter=0;" edge="1" parent="1" source="CW89IUnAFHwVdPf6LcuZ-39" target="CW89IUnAFHwVdPf6LcuZ-38">
          <mxGeometry relative="1" as="geometry" />
        </mxCell>
        <mxCell id="CW89IUnAFHwVdPf6LcuZ-39" value="Внутридоменный протокол граничного шлюза - BGP" style="rounded=1;whiteSpace=wrap;html=1;arcSize=24;shadow=0;comic=0;labelBackgroundColor=none;fontFamily=Verdana;fontSize=12;align=center;" vertex="1" parent="1">
          <mxGeometry x="780" y="410" width="140" height="80" as="geometry" />
        </mxCell>
        <mxCell id="CW89IUnAFHwVdPf6LcuZ-44" style="edgeStyle=orthogonalEdgeStyle;rounded=0;orthogonalLoop=1;jettySize=auto;html=1;entryX=1;entryY=0.5;entryDx=0;entryDy=0;" edge="1" parent="1" source="CW89IUnAFHwVdPf6LcuZ-42" target="CW89IUnAFHwVdPf6LcuZ-21">
          <mxGeometry relative="1" as="geometry">
            <Array as="points">
              <mxPoint x="850" y="680" />
            </Array>
          </mxGeometry>
        </mxCell>
        <mxCell id="CW89IUnAFHwVdPf6LcuZ-42" value="Сетевой интерфейс для доступа в Интернет" style="rounded=1;whiteSpace=wrap;html=1;arcSize=24;shadow=0;comic=0;labelBackgroundColor=none;fontFamily=Verdana;fontSize=12;align=center;" vertex="1" parent="1">
          <mxGeometry x="990" y="640" width="120" height="60" as="geometry" />
        </mxCell>
        <mxCell id="CW89IUnAFHwVdPf6LcuZ-47" value="&lt;div style=&quot;font-size: 16px;&quot;&gt;&lt;font style=&quot;font-size: 16px;&quot; face=&quot;Times New Roman&quot;&gt;EKT01-ASR-RT01&lt;/font&gt;&lt;/div&gt;&lt;div style=&quot;font-size: 16px;&quot;&gt;&lt;font style=&quot;font-size: 16px;&quot; face=&quot;Times New Roman&quot;&gt;Cisco ASR 1002-X&lt;br&gt;&lt;/font&gt;&lt;/div&gt;" style="text;html=1;strokeColor=none;fillColor=none;align=center;verticalAlign=middle;whiteSpace=wrap;rounded=0;" vertex="1" parent="1">
          <mxGeometry x="40" y="40" width="210" height="60" as="geometry" />
        </mxCell>
        <mxCell id="CW89IUnAFHwVdPf6LcuZ-49" value="&lt;div style=&quot;font-size: 16px;&quot;&gt;&lt;font style=&quot;font-size: 16px;&quot; face=&quot;Times New Roman&quot;&gt;KZN4-RT01&lt;/font&gt;&lt;/div&gt;&lt;div style=&quot;font-size: 16px;&quot;&gt;&lt;font style=&quot;font-size: 16px;&quot; face=&quot;Times New Roman&quot;&gt;Cisco ISR C1111-4P&lt;br&gt;&lt;/font&gt;&lt;/div&gt;" style="text;html=1;strokeColor=none;fillColor=none;align=center;verticalAlign=middle;whiteSpace=wrap;rounded=0;" vertex="1" parent="1">
          <mxGeometry x="970" y="30" width="210" height="60" as="geometry" />
        </mxCell>
        <mxCell id="CW89IUnAFHwVdPf6LcuZ-54" style="edgeStyle=orthogonalEdgeStyle;rounded=0;orthogonalLoop=1;jettySize=auto;html=1;" edge="1" parent="1" source="CW89IUnAFHwVdPf6LcuZ-50" target="CW89IUnAFHwVdPf6LcuZ-38">
          <mxGeometry relative="1" as="geometry" />
        </mxCell>
        <mxCell id="CW89IUnAFHwVdPf6LcuZ-50" value="Параметры безопасности" style="rounded=1;whiteSpace=wrap;html=1;arcSize=24;shadow=0;comic=0;labelBackgroundColor=none;fontFamily=Verdana;fontSize=12;align=center;" vertex="1" parent="1">
          <mxGeometry x="830" y="260" width="120" height="60" as="geometry" />
        </mxCell>
        <mxCell id="CW89IUnAFHwVdPf6LcuZ-21" value="Глобальная сеть Интернет" style="rounded=1;whiteSpace=wrap;html=1;arcSize=24;shadow=0;comic=0;labelBackgroundColor=none;fontFamily=Verdana;fontSize=12;align=center;" vertex="1" parent="1">
          <mxGeometry x="550" y="630" width="140" height="90" as="geometry" />
        </mxCell>
      </root>
    </mxGraphModel>
  </diagram>
</mxfile>
